<svg xmlns="http://www.w3.org/2000/svg" version="1.1" xmlns:xlink="http://www.w3.org/1999/xlink" xmlns:svgjs="http://svgjs.dev/svgjs" width="1000" height="1000" viewBox="0 0 1000 1000"><rect width="1000" height="1000" fill="#ffffff"></rect><g transform="matrix(0.7,0,0,0.7,149.57575757575756,345.5858595978385)"><svg viewBox="0 0 396 175" data-background-color="#ffffff" preserveAspectRatio="xMidYMid meet" height="441" width="1000" xmlns="http://www.w3.org/2000/svg" xmlns:xlink="http://www.w3.org/1999/xlink"><g id="tight-bounds" transform="matrix(1,0,0,1,0.2400000000000091,0.03636416208441062)"><svg viewBox="0 0 395.52 174.9272744800056" height="174.9272744800056" width="395.52"><g><svg viewBox="0 0 692.3296523469141 306.19776275974795" height="174.9272744800056" width="395.52"><g><svg viewBox="0 0 395.52 306.19776275974795" height="306.19776275974795" width="395.52"><g><svg viewBox="0 0 395.52 306.19776275974795" height="306.19776275974795" width="395.52"><g><svg viewBox="0 0 395.52 221.8704669128338" height="221.8704669128338" width="395.52"><g transform="matrix(1,0,0,1,0,0)"><svg width="395.52" viewBox="3.9488236904144287 -31.3799991607666 55.93117904663086 31.3799991607666" height="221.8704669128338" data-palette-color="#50a060"><path d="M13.45 0L5.86 0Q4.66 0 4.02-1.15L4.02-1.15Q3.91-1.49 3.97-1.9L3.97-1.9 3.97-29.43Q3.97-30.57 5.06-31.21L5.06-31.21Q5.4-31.38 5.86-31.38L5.86-31.38 13.33-31.38Q25.69-31.38 29.08-22.41L29.08-22.41Q30.17-19.48 30.11-15.63L30.11-15.63Q30.11-7.93 25.75-3.97L25.75-3.97Q21.38 0 13.45 0L13.45 0ZM7.82-28.28L7.82-2.99 13.91-2.99Q23.1-2.99 25.29-10.46L25.29-10.46Q25.98-12.76 25.98-15.8 25.98-18.85 25.06-21.26 24.14-23.68 22.41-25.29L22.41-25.29Q19.14-28.28 12.76-28.28L12.76-28.28 7.82-28.28ZM37.07-1.9L37.07-29.48Q37.07-30.17 37.47-30.57L37.47-30.57Q38.16-31.26 38.96-31.38L38.96-31.38 49.08-31.38Q53.27-31.38 55.97-29.14L55.97-29.14Q58.62-27.01 58.62-23.45L58.62-23.45Q58.62-20.86 57.01-18.97L57.01-18.97Q55.28-17.01 52.58-16.38L52.58-16.38 52.58-16.32Q57.76-15.4 59.42-11.38L59.42-11.38Q59.88-10.11 59.88-8.51 59.88-6.9 59.37-5.34 58.85-3.79 57.58-2.64L57.58-2.64Q54.71 0 49.48 0L49.48 0 38.96 0Q38.27 0 37.76-0.46L37.76-0.46Q37.07-1.03 37.07-1.9L37.07-1.9ZM40.86-14.71L40.86-2.99 47.47-2.99Q51.84-2.99 53.62-4.25L53.62-4.25Q55.86-5.63 55.86-8.85L55.86-8.85Q55.86-13.91 49.88-14.6L49.88-14.6Q48.1-14.71 45.86-14.71L45.86-14.71 40.86-14.71ZM54.65-23.1L54.65-23.1Q54.65-28.39 47.35-28.28L47.35-28.28 40.86-28.28 40.86-17.59 47.41-17.59Q52.24-17.59 54.02-20.52L54.02-20.52Q54.65-21.55 54.65-23.1Z" opacity="1" transform="matrix(1,0,0,1,0,0)" fill="#50a060" class="undefined-text-0" data-fill-palette-color="primary" id="text-0"></path></svg></g></svg></g><g transform="matrix(1,0,0,1,163.310208,274.24875925974794)"><svg viewBox="0 0 232.209792 31.9490035" height="31.9490035" width="232.209792"><g transform="matrix(1,0,0,1,0,0)"><svg width="232.209792" viewBox="3.549999952316284 -40.45000076293945 345.57000732421875 47.54999923706055" height="31.9490035" data-palette-color="#50a060"><path d="M9.05-22.15L9.05-8Q9.05-6.8 9.83-5.75 10.6-4.7 12.45-4.7L12.45-4.7 18.7-4.7Q20.55-4.7 21.33-5.63 22.1-6.55 22.1-7.75L22.1-7.75 22.1-8.3Q22.1-10.65 24.85-10.65L24.85-10.65Q27.6-10.65 27.6-8.3L27.6-8.3 27.6-7.7Q27.6-5.6 26.93-4.25 26.25-2.9 24.9-1.9L24.9-1.9Q22.25 0 19.6 0L19.6 0 11.2 0Q8.55 0 6.05-1.9L6.05-1.9Q4.85-2.9 4.2-4.42 3.55-5.95 3.55-7.95L3.55-7.95 3.55-22.2Q3.55-26.25 6.05-28.2L6.05-28.2Q7.3-29.1 8.63-29.63 9.95-30.15 11.2-30.15L11.2-30.15 19.6-30.15Q20.8-30.15 22.25-29.68 23.7-29.2 24.95-28.4L24.95-28.4Q26.15-27.55 26.88-26.05 27.6-24.55 27.6-22.5L27.6-22.5 27.6-15.75Q27.6-14.6 26.93-13.7 26.25-12.8 24.45-12.8L24.45-12.8 13.65-12.8Q11.85-12.8 11.75-15.15L11.75-15.15Q11.75-17.5 13.65-17.5L13.65-17.5 22.15-17.5 22.1-22.15Q22.1-23.4 21.33-24.43 20.55-25.45 18.7-25.45L18.7-25.45 12.45-25.45Q10.6-25.45 9.83-24.43 9.05-23.4 9.05-22.15L9.05-22.15ZM48.05 0L41.5 0Q39.95 0 38.55-0.43 37.15-0.85 35.85-1.65L35.85-1.65 35.85-1.6Q33.4-3.15 33.4-7.3L33.4-7.3 33.4-9.75Q33.4-11.8 34.12-13.33 34.85-14.85 36.15-15.75L36.15-15.75 36.1-15.75Q37.35-16.6 38.75-17.03 40.15-17.45 41.45-17.45L41.45-17.45 52.5-17.45 52.5-22.1Q52.5-23.35 51.72-24.38 50.95-25.4 49.1-25.4L49.1-25.4 43.25-25.4Q41.35-25.4 40.62-24.48 39.9-23.55 39.9-22.3L39.9-22.3 39.9-21.9Q39.9-19.3 37.1-19.3L37.1-19.3Q34.3-19.3 34.3-21.9L34.3-21.9 34.3-22.35Q34.3-24.4 35.02-25.8 35.75-27.2 37-28.15L37-28.15 36.95-28.15Q38.25-29 39.67-29.55 41.1-30.1 42.4-30.1L42.4-30.1 50-30.1Q51.25-30.1 52.67-29.55 54.1-29 55.35-28.15L55.35-28.15 55.3-28.15Q56.6-27.2 57.3-25.68 58-24.15 58-22.15L58-22.15 58-2.1Q58 0.3 55.25 0.3L55.25 0.3Q54.7 0.3 54.22 0.25 53.75 0.2 53.37-0.03 53-0.25 52.77-0.68 52.55-1.1 52.55-1.8L52.55-1.8 52.5-12.75 42.4-12.75Q41.3-12.75 40.7-12.5 40.1-12.25 39.75-11.7L39.75-11.7Q39.35-10.85 39.17-10.38 39-9.9 39-9.3L39-9.3 39-7.35Q39-6.05 39.77-5.38 40.55-4.7 42.45-4.7L42.45-4.7 48.05-4.7Q49.9-4.7 49.9-2.35L49.9-2.35Q49.9-1.35 49.45-0.68 49 0 48.05 0L48.05 0ZM73.34-17.5L80.7-17.5Q81.95-17.5 83.37-16.93 84.8-16.35 86.05-15.5L86.05-15.5 86-15.5Q87.3-14.55 88-13.05 88.7-11.55 88.7-9.45L88.7-9.45 88.7-7.95Q88.7-3.85 86-1.9L86-1.9Q84.7-0.9 83.34-0.45 82 0 80.7 0L80.7 0 72.2 0Q70.9 0 69.55-0.45 68.2-0.9 66.9-1.9L66.9-1.9Q64.2-3.8 64.2-7.95L64.2-7.95 64.2-8.55Q64.2-10.7 66.95-10.65L66.95-10.65Q69.75-10.65 69.75-8.55L69.75-8.55 69.75-8Q69.75-6.8 70.5-5.75 71.25-4.7 73.15-4.7L73.15-4.7 79.75-4.7Q81.65-4.7 82.4-5.75 83.15-6.8 83.15-8L83.15-8 83.15-9.4Q83.15-10.05 82.97-10.65 82.8-11.25 82.4-11.73 82-12.2 81.34-12.5 80.7-12.8 79.75-12.8L79.75-12.8 72.45-12.8Q69.9-12.8 67.09-14.6L67.09-14.6Q64.45-16.3 64.45-20.45L64.45-20.45 64.45-22.15Q64.45-24.15 65.15-25.68 65.84-27.2 67.15-28.15L67.15-28.15 67.09-28.15Q68.34-29 69.75-29.55 71.15-30.1 72.45-30.1L72.45-30.1 80.45-30.1Q81.75-30.1 83.12-29.55 84.5-29 85.8-28.15L85.8-28.15 85.75-28.15Q87.05-27.2 87.75-25.68 88.45-24.15 88.45-22.15L88.45-22.15 88.45-21.7Q88.45-20.65 87.75-20.18 87.05-19.7 85.7-19.65L85.7-19.65Q82.95-19.6 82.95-21.7L82.95-21.7 82.95-22.1Q82.95-23.35 82.17-24.38 81.4-25.4 79.55-25.4L79.55-25.4 73.34-25.4Q71.5-25.4 70.72-24.38 69.95-23.35 69.95-22.1L69.95-22.1 69.95-20.9Q69.95-19.6 70.72-18.55 71.5-17.5 73.34-17.5L73.34-17.5ZM100.84-27.9L100.84-2.1Q100.84 0.3 98.09 0.3L98.09 0.3Q95.29 0.3 95.29-2.1L95.29-2.1 95.29-27.9Q95.29-30.3 98.09-30.3L98.09-30.3Q100.84-30.3 100.84-27.9L100.84-27.9ZM101.89-36.6L101.89-36.6Q101.89-35 100.79-33.9 99.69-32.8 98.09-32.8L98.09-32.8Q96.49-32.8 95.37-33.9 94.24-35 94.24-36.6L94.24-36.6Q94.24-38.25 95.37-39.35 96.49-40.45 98.09-40.45L98.09-40.45Q99.69-40.45 100.79-39.35 101.89-38.25 101.89-36.6ZM113.49-37.8L113.49-1.95Q113.49 0.4 110.74 0.4L110.74 0.4Q107.94 0.4 107.94-1.95L107.94-1.95 107.94-37.8Q107.94-40.15 110.74-40.15L110.74-40.15Q113.49-40.15 113.49-37.8L113.49-37.8ZM124.59 7L121.99 7Q120.24 7 120.14 4.65L120.14 4.65Q120.14 2.3 121.99 2.3L121.99 2.3 124.19 2.3Q125.94 2.3 126.49 1.25L126.49 1.25 127.19-0.6 127.44-1.4 117.69-26.95 117.69-26.9Q117.29-28.1 117.86-28.95 118.44-29.8 119.64-30.2L119.64-30.2Q120.54-30.45 121.09-30.45L121.09-30.45Q122.54-30.45 122.89-28.75L122.89-28.75 126.84-18.9 130.19-10.7 135.54-28.65Q135.99-30.45 137.64-30.45L137.64-30.45Q138.04-30.45 138.94-30.2L138.94-30.2Q140.14-29.85 140.66-29.05 141.19-28.25 140.89-27.15L140.89-27.15Q138.64-19.5 136.31-11.75 133.99-4 131.74 3.6L131.74 3.6Q131.49 4.15 130.96 4.73 130.44 5.3 129.59 5.83 128.74 6.35 127.49 6.68 126.24 7 124.59 7L124.59 7ZM175.63-1.95L175.63-21.75Q175.63-22.4 175.43-23.03 175.23-23.65 174.93-24.2L174.93-24.2Q174.28-25.4 172.23-25.4L172.23-25.4 169.03-25.4Q166.98-25.4 166.28-24.2L166.28-24.2Q165.68-23.05 165.68-21.75L165.68-21.75 165.68-1.95Q165.68 0.4 162.93 0.4L162.93 0.4Q160.08 0.4 160.08-1.95L160.08-1.95 160.08-22.2Q160.08-26.3 162.78-28.2L162.78-28.2Q165.53-30.1 168.13-30.1L168.13-30.1 173.18-30.1Q174.33-30.1 175.73-29.65 177.13-29.2 178.43-28.25L178.43-28.25Q179.68-29.2 181.06-29.65 182.43-30.1 183.68-30.1L183.68-30.1 188.68-30.1Q191.33-30.1 193.98-28.2L193.98-28.2Q196.73-26.35 196.73-22.2L196.73-22.2 196.73-1.95Q196.73 0.4 193.93 0.4L193.93 0.4Q191.13 0.4 191.13-1.95L191.13-1.95 191.13-21.75Q191.13-22.4 190.98-23.05 190.83-23.7 190.43-24.25L190.43-24.25 190.48-24.2Q190.08-24.85 189.48-25.13 188.88-25.4 187.73-25.4L187.73-25.4 184.58-25.4Q182.48-25.4 181.83-24.2L181.83-24.2Q181.18-23.1 181.18-21.75L181.18-21.75 181.18-1.95Q181.18 0.4 178.43 0.4L178.43 0.4Q175.63 0.4 175.63-1.95L175.63-1.95ZM216.93 0L210.38 0Q208.83 0 207.43-0.43 206.03-0.85 204.73-1.65L204.73-1.65 204.73-1.6Q202.28-3.15 202.28-7.3L202.28-7.3 202.28-9.75Q202.28-11.8 203.01-13.33 203.73-14.85 205.03-15.75L205.03-15.75 204.98-15.75Q206.23-16.6 207.63-17.03 209.03-17.45 210.33-17.45L210.33-17.45 221.38-17.45 221.38-22.1Q221.38-23.35 220.61-24.38 219.83-25.4 217.98-25.4L217.98-25.4 212.13-25.4Q210.23-25.4 209.51-24.48 208.78-23.55 208.78-22.3L208.78-22.3 208.78-21.9Q208.78-19.3 205.98-19.3L205.98-19.3Q203.18-19.3 203.18-21.9L203.18-21.9 203.18-22.35Q203.18-24.4 203.91-25.8 204.63-27.2 205.88-28.15L205.88-28.15 205.83-28.15Q207.13-29 208.56-29.55 209.98-30.1 211.28-30.1L211.28-30.1 218.88-30.1Q220.13-30.1 221.56-29.55 222.98-29 224.23-28.15L224.23-28.15 224.18-28.15Q225.48-27.2 226.18-25.68 226.88-24.15 226.88-22.15L226.88-22.15 226.88-2.1Q226.88 0.3 224.13 0.3L224.13 0.3Q223.58 0.3 223.11 0.25 222.63 0.2 222.26-0.03 221.88-0.25 221.66-0.68 221.43-1.1 221.43-1.8L221.43-1.8 221.38-12.75 211.28-12.75Q210.18-12.75 209.58-12.5 208.98-12.25 208.63-11.7L208.63-11.7Q208.23-10.85 208.06-10.38 207.88-9.9 207.88-9.3L207.88-9.3 207.88-7.35Q207.88-6.05 208.66-5.38 209.43-4.7 211.33-4.7L211.33-4.7 216.93-4.7Q218.78-4.7 218.78-2.35L218.78-2.35Q218.78-1.35 218.33-0.68 217.88 0 216.93 0L216.93 0ZM238.83-21.75L238.83-2.1Q238.83 0.3 236.08 0.3L236.08 0.3Q233.33 0.3 233.33-2.1L233.33-2.1 233.33-22.2Q233.33-24.25 233.98-25.75 234.63-27.25 236.03-28.2L236.03-28.2Q238.68-30.1 241.33-30.1L241.33-30.1 249.38-30.1Q251.93-30.1 254.68-28.2L254.68-28.2Q257.38-26.3 257.38-22.2L257.38-22.2 257.38-2.1Q257.38 0.3 254.63 0.3L254.63 0.3Q251.88 0.3 251.88-2.1L251.88-2.1 251.88-21.75Q251.88-23.05 251.08-24.25L251.08-24.25 251.13-24.2Q250.48-25.4 248.48-25.4L248.48-25.4 242.23-25.4Q240.18-25.4 239.53-24.2L239.53-24.2Q238.83-23.15 238.83-21.75L238.83-21.75ZM277.93 0L271.38 0Q269.83 0 268.43-0.43 267.03-0.85 265.73-1.65L265.73-1.65 265.73-1.6Q263.28-3.15 263.28-7.3L263.28-7.3 263.28-9.75Q263.28-11.8 264-13.33 264.73-14.85 266.03-15.75L266.03-15.75 265.98-15.75Q267.23-16.6 268.63-17.03 270.03-17.45 271.33-17.45L271.33-17.45 282.38-17.45 282.38-22.1Q282.38-23.35 281.6-24.38 280.83-25.4 278.98-25.4L278.98-25.4 273.13-25.4Q271.23-25.4 270.5-24.48 269.78-23.55 269.78-22.3L269.78-22.3 269.78-21.9Q269.78-19.3 266.98-19.3L266.98-19.3Q264.18-19.3 264.18-21.9L264.18-21.9 264.18-22.35Q264.18-24.4 264.9-25.8 265.63-27.2 266.88-28.15L266.88-28.15 266.83-28.15Q268.13-29 269.55-29.55 270.98-30.1 272.28-30.1L272.28-30.1 279.88-30.1Q281.13-30.1 282.55-29.55 283.98-29 285.23-28.15L285.23-28.15 285.18-28.15Q286.48-27.2 287.18-25.68 287.88-24.15 287.88-22.15L287.88-22.15 287.88-2.1Q287.88 0.3 285.13 0.3L285.13 0.3Q284.58 0.3 284.1 0.25 283.63 0.2 283.25-0.03 282.88-0.25 282.65-0.68 282.43-1.1 282.43-1.8L282.43-1.8 282.38-12.75 272.28-12.75Q271.18-12.75 270.58-12.5 269.98-12.25 269.63-11.7L269.63-11.7Q269.23-10.85 269.05-10.38 268.88-9.9 268.88-9.3L268.88-9.3 268.88-7.35Q268.88-6.05 269.65-5.38 270.43-4.7 272.33-4.7L272.33-4.7 277.93-4.7Q279.78-4.7 279.78-2.35L279.78-2.35Q279.78-1.35 279.33-0.68 278.88 0 277.93 0L277.93 0ZM308.42-3.5L302.37-3.5Q301.07-3.5 299.7-3.95 298.32-4.4 297.02-5.25L297.02-5.25Q294.32-7 294.32-11.15L294.32-11.15 294.32-22.45Q294.32-24.55 295.05-26.05 295.77-27.55 297.02-28.4L297.02-28.4Q298.32-29.2 299.67-29.65 301.02-30.1 302.32-30.1L302.32-30.1 310.72-30.1Q311.97-30.1 313.32-29.55 314.67-29 315.82-28.15L315.82-28.15Q316.97-27.2 317.67-25.65 318.37-24.1 318.37-22.15L318.37-22.15 318.37-0.95Q318.37 1.15 317.7 2.63 317.02 4.1 315.82 5.1L315.82 5.1Q314.67 6.05 313.35 6.58 312.02 7.1 310.72 7.1L310.72 7.1 302.32 7.1Q299.67 7.1 296.97 5.55L296.97 5.55Q295.57 4.75 294.95 3.5 294.32 2.25 294.32 0.6L294.32 0.6 294.32 0Q294.32-1 294.97-1.6 295.62-2.2 297.02-2.2L297.02-2.2Q299.82-1.9 299.82 0L299.82 0 299.82 0.55Q299.82 1.1 300.6 1.75 301.37 2.4 303.22 2.4L303.22 2.4 309.47 2.4Q311.32 2.4 312.1 1.35 312.87 0.3 312.87-1L312.87-1 312.87-22.1Q312.87-23.35 312.1-24.38 311.32-25.4 309.47-25.4L309.47-25.4 303.22-25.4Q301.37-25.4 300.6-24.38 299.82-23.35 299.82-22.1L299.82-22.1 299.82-11.55Q299.82-10.3 300.6-9.22 301.37-8.15 303.22-8.15L303.22-8.15 308.42-8.15Q310.22-8.15 310.22-5.85L310.22-5.85Q310.22-4.8 309.8-4.15 309.37-3.5 308.42-3.5L308.42-3.5ZM330.57-22.15L330.57-8Q330.57-6.8 331.35-5.75 332.12-4.7 333.97-4.7L333.97-4.7 340.22-4.7Q342.07-4.7 342.85-5.63 343.62-6.55 343.62-7.75L343.62-7.75 343.62-8.3Q343.62-10.65 346.37-10.65L346.37-10.65Q349.12-10.65 349.12-8.3L349.12-8.3 349.12-7.7Q349.12-5.6 348.45-4.25 347.77-2.9 346.42-1.9L346.42-1.9Q343.77 0 341.12 0L341.12 0 332.72 0Q330.07 0 327.57-1.9L327.57-1.9Q326.37-2.9 325.72-4.42 325.07-5.95 325.07-7.95L325.07-7.95 325.07-22.2Q325.07-26.25 327.57-28.2L327.57-28.2Q328.82-29.1 330.15-29.63 331.47-30.15 332.72-30.15L332.72-30.15 341.12-30.15Q342.32-30.15 343.77-29.68 345.22-29.2 346.47-28.4L346.47-28.4Q347.67-27.55 348.4-26.05 349.12-24.55 349.12-22.5L349.12-22.5 349.12-15.75Q349.12-14.6 348.45-13.7 347.77-12.8 345.97-12.8L345.97-12.8 335.17-12.8Q333.37-12.8 333.27-15.15L333.27-15.15Q333.27-17.5 335.17-17.5L335.17-17.5 343.67-17.5 343.62-22.15Q343.62-23.4 342.85-24.43 342.07-25.45 340.22-25.45L340.22-25.45 333.97-25.45Q332.12-25.45 331.35-24.43 330.57-23.4 330.57-22.15L330.57-22.15Z" opacity="1" transform="matrix(1,0,0,1,0,0)" fill="#50a060" class="undefined-text-1" data-fill-palette-color="secondary" id="text-1"></path></svg></g></svg></g></svg></g></svg></g><g transform="matrix(1,0,0,1,447.8982923469141,30.88320137987398)"><svg viewBox="0 0 244.43135999999998 244.43135999999998" height="244.43135999999998" width="244.43135999999998"><g data-palette-color="#50a060"><rect width="66.8112384" height="244.43135999999998" fill="#50a060" stroke="transparent" data-fill-palette-color="accent" x="0" fill-opacity="1"></rect><rect width="66.8112384" height="244.43135999999998" fill="#50a060" stroke="transparent" data-fill-palette-color="accent" x="81.47711999999999" fill-opacity="0.75"></rect><rect width="66.8112384" height="244.43135999999998" fill="#50a060" stroke="transparent" data-fill-palette-color="accent" x="162.95423999999997" fill-opacity="0.5"></rect></g></svg></g></svg></g><defs></defs></svg><rect width="395.52" height="174.9272744800056" fill="none" stroke="none" visibility="hidden"></rect></g></svg></g></svg>